<svg width="16" height="11" viewBox="0 0 16 11" fill="none" xmlns="http://www.w3.org/2000/svg">
<path d="M9.99911 4.5C9.99911 6.433 8.43211 8 6.49911 8C4.56611 8 2.99911 6.433 2.99911 4.5C2.99911 2.567 4.56611 1 6.49911 1C8.43211 1 9.99911 2.567 9.99911 4.5Z" fill="#800080"/>
<path d="M4.99911 2L5.22363 2.69098H5.95017L5.36238 3.11803L5.5869 3.80902L4.99911 3.38197L4.41133 3.80902L4.63584 3.11803L4.04805 2.69098H4.7746L4.99911 2Z" fill="#D9D9D9"/>
<path d="M6.49911 8.05C8.45972 8.05 10.0491 6.46061 10.0491 4.5C10.0491 2.53939 8.45972 0.95 6.49911 0.95C4.5385 0.95 2.94911 2.53939 2.94911 4.5C2.94911 6.46061 4.5385 8.05 6.49911 8.05Z" stroke="black" stroke-width="0.1"/>
<path d="M11.9991 6C11.9991 7.10457 11.1037 8 9.99911 8C8.89454 8 7.99911 7.10457 7.99911 6C7.99911 4.89543 8.89454 4 9.99911 4C11.1037 4 11.9991 4.89543 11.9991 6Z" fill="#800080"/>
<path d="M10.4991 5L10.6114 5.34549H10.9746L10.6807 5.55902L10.793 5.90451L10.4991 5.69098L10.2052 5.90451L10.3175 5.55902L10.0236 5.34549H10.3869L10.4991 5Z" fill="#D9D9D9"/>
<path d="M9.99911 8.05C11.1313 8.05 12.0491 7.13218 12.0491 6C12.0491 4.86782 11.1313 3.95 9.99911 3.95C8.86693 3.95 7.94911 4.86782 7.94911 6C7.94911 7.13218 8.86693 8.05 9.99911 8.05Z" stroke="black" stroke-width="0.1"/>
<path d="M8.1164 9.44004L8.11884 9.47483L8.15233 9.48456C9.15761 9.77662 9.93815 9.7537 10.5866 9.5232C11.2344 9.29298 11.7445 8.85772 12.2125 8.33615C12.4465 8.07535 12.6706 7.79217 12.8963 7.5015C12.939 7.44653 12.9817 7.3913 13.0246 7.3359C13.2087 7.09794 13.3953 6.85675 13.5913 6.61899C14.0744 6.03302 14.612 5.47141 15.2992 5.04241L15.2727 5L15.2463 4.95759C14.5636 5.38378 13.7572 5.5087 12.9312 5.54516C12.5962 5.55994 12.2595 5.56015 11.9269 5.56037C11.8495 5.56042 11.7723 5.56047 11.6954 5.5607C11.289 5.56193 10.8915 5.56831 10.5184 5.60751C9.77255 5.68587 9.11471 5.89634 8.67228 6.46932C8.23107 7.04072 8.01266 7.96177 8.1164 9.44004Z" fill="#008000" stroke="black" stroke-width="0.1" stroke-miterlimit="1.55572" stroke-linecap="round"/>
<path d="M9.03204 9.59986L9.01779 9.55521C9.03658 9.54243 9.05544 9.52945 9.07437 9.51629C9.12223 9.48302 9.13406 9.41724 9.10078 9.36938C9.06751 9.32153 9.00173 9.3097 8.95387 9.34298C8.95227 9.34409 8.95068 9.3452 8.94908 9.34631C8.51067 8.05371 7.97923 7.21247 7.37372 6.68339C6.7269 6.1182 6.0055 5.91783 5.24974 5.89285C4.55174 5.86978 3.81894 5.99641 3.08738 6.12283L3.08444 6.12334L2.91965 6.15176C2.12726 6.28783 1.33659 6.41108 0.566861 6.34774C0.508767 6.34296 0.457797 6.38617 0.453016 6.44427C0.45258 6.44957 0.452546 6.45483 0.452892 6.46001C0.450248 6.4693 0.448845 6.47907 0.448861 6.48912C0.448952 6.54741 0.496279 6.59459 0.55457 6.5945C1.47957 6.59306 2.21774 6.9355 2.87005 7.41586C3.34159 7.76311 3.76357 8.17844 4.17947 8.58791L4.17972 8.58815C4.34224 8.74816 4.50386 8.90728 4.66665 9.06047C5.24083 9.60075 5.8356 10.0728 6.54553 10.2273C7.20408 10.3706 7.94336 10.2373 8.83515 9.67497C8.85678 9.72316 8.91157 9.74857 8.96317 9.73228C9.01875 9.71473 9.04959 9.65545 9.03204 9.59986Z" fill="#008000" stroke="black" stroke-width="0.1" stroke-miterlimit="1.55572" stroke-linecap="round"/>
</svg>
